<?xml version="1.0" encoding="utf-8"?>
<!-- Generator: Adobe Illustrator 25.0.1, SVG Export Plug-In . SVG Version: 6.00 Build 0)  -->
<svg version="1.1" id="레이어_1" xmlns="http://www.w3.org/2000/svg" xmlns:xlink="http://www.w3.org/1999/xlink" x="0px"
	 y="0px" viewBox="0 0 1920 1080" style="enable-background:new 0 0 1920 1080;" xml:space="preserve">
<style type="text/css">
	.st0{fill:#009EE2;}
	.st1{fill:#A3319C;}
	.st2{fill:#F31E34;}
	.st3{fill:#FF7B00;}
	.st4{fill:#35BF2E;}
	.st5{fill:#FFB600;}
</style>
<g>
	<path class="st0" d="M1541.48,607.22c-10.5,24.09-35.62,36.88-74.19,36.88c-28.2,0-51.9-4.2-66.3-12v-24.88h-70.8v33.58h-56.7
		v-33.58h-80.4v33.58h-56.7v-33.58h-49.41c-16.91,22.86-45.18,33.58-82.28,33.58H927v-33.58h-32.4v33.58H752.7v-33.58h-41.13
		L729,640.8h-58.8l-16.72-33.58H612.6v33.58h-56.4v-33.58h-29.1v26.08c-13.8,6.3-30.9,10.8-56.7,10.8
		c-37.47,0-65.58-11.94-81.77-36.88"/>
	<path class="st0" d="M470.41,644.1c25.8,0,42.9-4.5,56.7-10.8v-26.08H388.64C404.83,632.16,432.94,644.1,470.41,644.1z"/>
	<polygon class="st0" points="670.2,640.8 729,640.8 711.57,607.22 653.48,607.22 	"/>
	<rect x="556.2" y="607.22" class="st0" width="56.4" height="33.58"/>
	<rect x="752.7" y="607.22" class="st0" width="141.9" height="33.58"/>
	<path class="st0" d="M927,640.8h77.7c37.1,0,65.38-10.72,82.28-33.58H927V640.8z"/>
	<rect x="1136.4" y="607.22" class="st0" width="56.7" height="33.58"/>
	<rect x="1273.5" y="607.22" class="st0" width="56.7" height="33.58"/>
	<path class="st0" d="M1400.99,632.1c14.4,7.8,38.1,12,66.3,12c38.57,0,63.69-12.79,74.19-36.88h-140.49V632.1z"/>
	<path class="st1" d="M388.64,607.22c-6.07-9.35-10.48-20.52-13.05-33.6"/>
	<path class="st1" d="M1547.03,573.62c0.04,1.27,0.06,2.56,0.06,3.88c0,11.28-1.9,21.2-5.61,29.72"/>
	<path class="st1" d="M483.31,601.5c-25.24,0-39.28-9.68-45.71-27.88h-62.01c2.57,13.08,6.98,24.25,13.05,33.6h138.47V593.1
		C516.91,597.3,503.71,601.5,483.31,601.5z"/>
	<polygon class="st1" points="636.75,573.62 653.48,607.22 711.57,607.22 694.13,573.62 	"/>
	<rect x="556.2" y="573.62" class="st1" width="56.4" height="33.6"/>
	<polygon class="st1" points="808.5,600.3 808.5,573.62 752.7,573.62 752.7,607.22 894.6,607.22 894.6,600.3 	"/>
	<path class="st1" d="M1042.26,573.62c-5.59,19.95-18.43,27.28-38.76,27.28h-20.1v-27.28H927v33.6h159.98
		c6.8-9.2,11.74-20.38,14.7-33.6H1042.26z"/>
	<rect x="1136.4" y="573.62" class="st1" width="56.7" height="33.6"/>
	<rect x="1273.5" y="573.62" class="st1" width="56.7" height="33.6"/>
	<path class="st1" d="M1491.89,583.5c0,12-8.7,18.9-31.2,18.9c-23.4,0-41.7-4.8-59.7-11.4v16.22h140.49
		c3.71-8.52,5.61-18.44,5.61-29.72c0-1.32-0.02-2.61-0.06-3.88h-57.56C1491.23,576.12,1491.89,579.29,1491.89,583.5z"/>
	<path class="st2" d="M1537.88,540.02c5.58,8.31,8.69,19.18,9.16,33.6"/>
	<path class="st2" d="M375.59,573.62c-1.77-9.01-2.68-18.9-2.68-29.72v-3.88"/>
	<path class="st2" d="M433.2,542.1v-2.08h-60.3v3.88c0,10.82,0.91,20.71,2.68,29.72h62.01C434.55,564.99,433.2,554.45,433.2,542.1z"
		/>
	<path class="st2" d="M684,552.9c7.95-3.41,14.66-7.55,19.92-12.88H556.2v33.6h56.4v-6.32h21l3.15,6.32h57.39L684,554.1V552.9z"/>
	<polygon class="st2" points="873.6,557.7 873.6,540.02 752.7,540.02 752.7,573.62 808.5,573.62 808.5,557.7 	"/>
	<path class="st2" d="M1104.9,540.02h-59.4v4.48c0,11.8-1.08,21.4-3.24,29.12h59.41c2.11-9.45,3.22-19.93,3.22-31.52V540.02z"/>
	<rect x="927" y="540.02" class="st2" width="56.4" height="33.6"/>
	<rect x="1136.4" y="540.02" class="st2" width="56.7" height="33.6"/>
	<rect x="1273.5" y="540.02" class="st2" width="56.7" height="33.6"/>
	<path class="st2" d="M1452.29,561.3l15,3c12.47,2.49,19.05,4.87,22.17,9.32h57.56c-0.47-14.42-3.58-25.3-9.16-33.6H1411.4
		C1420.26,552.02,1434.29,557.94,1452.29,561.3z"/>
	<path class="st3" d="M372.9,540.02V537c0-11.25,1.04-21.42,2.99-30.58"/>
	<path class="st3" d="M1458.38,506.42c3.71,2.82,9.64,4.78,18.51,6.58l15,2.7c21.37,4.13,36.93,10.85,45.98,24.32"/>
	<path class="st3" d="M433.2,533.1c0-10.54,1.37-19.38,4-26.68h-61.31c-1.95,9.16-2.99,19.33-2.99,30.58v3.02h60.3V533.1z"/>
	<path class="st3" d="M703.92,540.02c7.9-8,12.55-18.69,13.27-33.6h-56.01c-0.42,17.89-8.33,26.98-27.88,26.98H612v-26.98h-55.8
		v33.6H703.92z"/>
	<polygon class="st3" points="873.6,540.02 873.6,518.1 808.5,518.1 808.5,506.42 752.7,506.42 752.7,540.02 	"/>
	<rect x="927" y="506.42" class="st3" width="56.4" height="33.6"/>
	<path class="st3" d="M1045.5,540.02h59.4v-4.82c0-10.57-0.88-20.14-2.58-28.78h-60.08c2.14,7.39,3.25,16.56,3.25,27.88V540.02z"/>
	<rect x="1136.4" y="506.42" class="st3" width="56.7" height="33.6"/>
	<rect x="1273.5" y="506.42" class="st3" width="56.7" height="33.6"/>
	<path class="st3" d="M1411.4,540.02h126.48c-9.05-13.47-24.61-20.19-45.98-24.32l-15-2.7c-8.87-1.8-14.8-3.76-18.51-6.58h-57.47
		C1401.82,521.1,1405.43,531.94,1411.4,540.02z"/>
	<path class="st4" d="M389.71,472.82c17.79-26.11,48.06-36.92,82.79-36.92c25.2,0,41.1,3,52.5,8.7v28.22h31.2V439.2h84.6
		c37.6,0,61.32,10.62,71.2,33.62h40.7V439.2h139.2v33.62H927V439.2h77.4c38.54,0,67.54,10,84.24,33.62h47.75V439.2h56.7v33.62h27.3
		V439.2H1383v33.62h22.27c9.1-22.98,31.97-36.92,70.13-36.92c32.1,0,47.7,4.8,59.7,10.5v26.42"/>
	<path class="st4" d="M525.01,444.6c-11.4-5.7-27.3-8.7-52.5-8.7c-34.73,0-65,10.81-82.79,36.92h135.29V444.6z"/>
	<path class="st4" d="M640.8,439.2h-84.6v33.62h155.8C702.13,449.81,678.41,439.2,640.8,439.2z"/>
	<rect x="752.7" y="439.2" class="st4" width="139.2" height="33.62"/>
	<path class="st4" d="M1004.4,439.2H927v33.62h161.64C1071.94,449.19,1042.94,439.2,1004.4,439.2z"/>
	<rect x="1136.4" y="439.2" class="st4" width="56.7" height="33.62"/>
	<rect x="1220.39" y="439.2" class="st4" width="162.6" height="33.62"/>
	<path class="st4" d="M1535.1,446.4c-12-5.7-27.6-10.5-59.7-10.5c-38.16,0-61.03,13.94-70.13,36.92h129.83V446.4z"/>
	<path class="st5" d="M375.89,506.42c2.82-13.24,7.54-24.38,13.82-33.6"/>
	<path class="st5" d="M437.21,506.42c7.03-19.49,23.13-27.92,46.7-27.92c17.4,0,29.1,2.7,41.1,7.2v-12.88H389.71
		c-6.28,9.22-11.01,20.36-13.82,33.6H437.21z"/>
	<path class="st5" d="M612,506.42V477.6h20.4c20.7,0,28.8,8.4,28.8,27.3c0,0.51-0.01,1.02-0.02,1.52h56.01
		c0.07-1.37,0.11-2.77,0.11-4.22c0-11.43-1.78-21.18-5.3-29.38H556.2v33.6H612z"/>
	<polygon class="st5" points="808.5,506.42 808.5,479.7 891.9,479.7 891.9,472.82 752.7,472.82 752.7,506.42 	"/>
	<path class="st5" d="M983.4,506.42V479.1h18.6c20.32,0,34.29,6.68,40.25,27.32h60.08c-2.63-13.36-7.24-24.5-13.68-33.6H927v33.6
		H983.4z"/>
	<rect x="1136.4" y="472.82" class="st5" width="56.7" height="33.6"/>
	<polygon class="st5" points="1273.5,479.7 1273.5,506.42 1330.19,506.42 1330.19,479.7 1383,479.7 1383,472.82 1220.39,472.82 
		1220.39,479.7 	"/>
	<path class="st5" d="M1400.92,506.42h57.47c-3.7-2.81-5.19-6.48-5.19-11.72c0-11.7,9.3-17.4,27.6-17.4c22.8,0,40.2,4.8,54.3,9.6
		v-14.08h-129.83c-3.06,7.73-4.57,16.49-4.57,26.08C1400.69,501.51,1400.77,504.02,1400.92,506.42z"/>
</g>
</svg>
