<?xml version="1.0" encoding="utf-8"?>
<!-- Generator: Adobe Illustrator 25.0.1, SVG Export Plug-In . SVG Version: 6.00 Build 0)  -->
<svg version="1.1" id="레이어_1" xmlns="http://www.w3.org/2000/svg" xmlns:xlink="http://www.w3.org/1999/xlink" x="0px"
	 y="0px" viewBox="0 0 1920 1080" style="enable-background:new 0 0 1920 1080;" xml:space="preserve">
<style type="text/css">
	.st0{fill:#009EE2;}
	.st1{fill:#A3319C;}
	.st2{fill:#F31E34;}
	.st3{fill:#FF7B00;}
	.st4{fill:#35BF2E;}
	.st5{fill:#FFB600;}
</style>
<g>
	<path class="st0" d="M422.71,643.95c28.8,0,57.3-6.6,72.3-12.9v-23.68H335.03C352.1,633.52,382.54,643.95,422.71,643.95z"/>
	<polygon class="st0" points="656.1,640.95 713.7,640.95 702.06,607.37 644.74,607.37 	"/>
	<polygon class="st0" points="513,640.95 564,640.95 574.61,607.37 524.75,607.37 	"/>
	<rect x="736.8" y="607.37" class="st0" width="132.9" height="33.58"/>
	<rect x="898.8" y="607.37" class="st0" width="132.9" height="33.58"/>
	<rect x="1060.8" y="607.37" class="st0" width="141.9" height="33.58"/>
	<rect x="1235.09" y="607.37" class="st0" width="56.4" height="33.58"/>
	<polygon class="st0" points="1349.1,640.95 1407.9,640.95 1390.47,607.37 1332.37,607.37 	"/>
	<rect x="1480.79" y="607.37" class="st0" width="56.4" height="33.58"/>
	<path class="st1" d="M442.51,573.77v26.68c-4.8,1.8-13.2,3.3-21.6,3.3c-24.54,0-35.88-10.72-40.48-29.98h-58.29
		c2.54,13.29,6.89,24.42,12.89,33.6h159.98v-33.6H442.51z"/>
	<polygon class="st1" points="536.5,573.77 524.75,607.37 574.61,607.37 576.6,601.05 642.6,601.05 644.74,607.37 702.06,607.37 
		690.41,573.77 	"/>
	<polygon class="st1" points="793.2,600.45 793.2,573.77 736.8,573.77 736.8,607.37 869.7,607.37 869.7,600.45 	"/>
	<polygon class="st1" points="955.2,600.45 955.2,573.77 898.8,573.77 898.8,607.37 1031.7,607.37 1031.7,600.45 	"/>
	<polygon class="st1" points="1116.6,600.45 1116.6,573.77 1060.8,573.77 1060.8,607.37 1202.7,607.37 1202.7,600.45 	"/>
	<polygon class="st1" points="1315.64,573.77 1332.37,607.37 1390.47,607.37 1373.03,573.77 	"/>
	<rect x="1235.09" y="573.77" class="st1" width="56.4" height="33.6"/>
	<rect x="1480.79" y="573.77" class="st1" width="56.4" height="33.6"/>
	<path class="st2" d="M377.71,544.35v-4.18h-58.2v3.28c0,11.17,0.9,21.25,2.63,30.32h58.29
		C378.45,565.48,377.71,555.63,377.71,544.35z"/>
	<polygon class="st2" points="413.71,540.17 413.71,568.95 442.51,568.95 442.51,573.77 495.01,573.77 495.01,540.17 	"/>
	<polygon class="st2" points="623.38,540.17 631.2,564.75 587.4,564.75 595.23,540.17 548.25,540.17 536.5,573.77 690.41,573.77 
		678.76,540.17 	"/>
	<rect x="736.8" y="540.17" class="st2" width="56.4" height="33.6"/>
	<rect x="898.8" y="540.17" class="st2" width="56.4" height="33.6"/>
	<polygon class="st2" points="1181.7,557.85 1181.7,540.17 1060.8,540.17 1060.8,573.77 1116.6,573.77 1116.6,557.85 	"/>
	<path class="st2" d="M1362.9,553.05c7.95-3.41,14.66-7.55,19.92-12.88h-147.72v33.6h56.4v-6.32h21l3.15,6.32h57.39l-10.13-19.52
		V553.05z"/>
	<polygon class="st2" points="1480.79,562.05 1480.79,573.77 1537.19,573.77 1537.19,562.05 1548.48,540.17 1469.4,540.17 	"/>
	<path class="st3" d="M377.71,535.35c0-10.93,1.2-20.64,4.24-28.78h-59.43c-1.96,9.04-3.01,19.1-3.01,30.28v3.32h58.2V535.35z"/>
	<rect x="413.71" y="532.05" class="st3" width="81.3" height="8.12"/>
	<polygon class="st3" points="595.23,540.17 605.93,506.57 560,506.57 548.25,540.17 	"/>
	<polygon class="st3" points="678.76,540.17 667.11,506.57 612.68,506.57 623.38,540.17 	"/>
	<rect x="736.8" y="506.57" class="st3" width="56.4" height="33.6"/>
	<rect x="898.8" y="506.57" class="st3" width="56.4" height="33.6"/>
	<polygon class="st3" points="1181.7,540.17 1181.7,518.25 1116.6,518.25 1116.6,506.57 1060.8,506.57 1060.8,540.17 	"/>
	<path class="st3" d="M1382.82,540.17c7.9-8,12.54-18.69,13.27-33.6h-56.01c-0.42,17.89-8.33,26.98-27.88,26.98h-21.3v-26.98h-55.8
		v33.6H1382.82z"/>
	<polygon class="st3" points="1513.49,512.85 1512.59,512.85 1509.52,506.57 1451.9,506.57 1469.4,540.17 1548.48,540.17 
		1565.82,506.57 1516.52,506.57 	"/>
	<path class="st4" d="M484.81,447.15c-11.1-5.7-32.7-11.1-60.6-11.1c-35.6,0-68.39,9.89-87.46,36.92h148.06V447.15z"/>
	<polygon class="st4" points="643.8,439.35 583.5,439.35 571.75,472.97 655.46,472.97 	"/>
	<rect x="736.8" y="439.35" class="st4" width="56.4" height="33.62"/>
	<rect x="898.8" y="439.35" class="st4" width="56.4" height="33.62"/>
	<rect x="1060.8" y="439.35" class="st4" width="139.2" height="33.62"/>
	<path class="st4" d="M1319.7,439.35h-84.6v33.62h155.8C1381.02,449.96,1357.3,439.35,1319.7,439.35z"/>
	<polygon class="st4" points="1600.49,439.35 1548.9,439.35 1532.7,472.97 1583.15,472.97 	"/>
	<polygon class="st4" points="1476.59,439.35 1416.89,439.35 1434.4,472.97 1493.06,472.97 	"/>
	<polygon class="st5" points="609.9,497.85 608.7,497.85 605.93,506.57 612.68,506.57 	"/>
	<path class="st5" d="M381.95,506.57c6.4-17.12,20.99-27.32,50.06-27.32c25.2,0,41.7,5.4,52.8,9.3v-15.58H336.74
		c-6.45,9.14-11.33,20.25-14.23,33.6H381.95z"/>
	<polygon class="st5" points="605.93,506.57 608.7,497.85 609.9,497.85 612.68,506.57 667.11,506.57 655.46,472.97 571.75,472.97 
		560,506.57 	"/>
	<rect x="736.8" y="472.97" class="st5" width="56.4" height="33.6"/>
	<rect x="898.8" y="472.97" class="st5" width="56.4" height="33.6"/>
	<polygon class="st5" points="1116.6,506.57 1116.6,479.85 1200,479.85 1200,472.97 1060.8,472.97 1060.8,506.57 	"/>
	<path class="st5" d="M1290.9,506.57v-28.82h20.4c20.7,0,28.8,8.4,28.8,27.3c0,0.51-0.01,1.02-0.02,1.52h56.01
		c0.07-1.37,0.11-2.77,0.11-4.22c0-11.43-1.78-21.18-5.3-29.38h-155.8v33.6H1290.9z"/>
	<polygon class="st5" points="1509.52,506.57 1493.06,472.97 1434.4,472.97 1451.9,506.57 	"/>
	<polygon class="st5" points="1565.82,506.57 1583.15,472.97 1532.7,472.97 1516.52,506.57 	"/>
</g>
</svg>
