<?xml version="1.0" encoding="utf-8"?>
<!-- Generator: Adobe Illustrator 25.0.1, SVG Export Plug-In . SVG Version: 6.00 Build 0)  -->
<svg version="1.1" id="레이어_1" xmlns="http://www.w3.org/2000/svg" xmlns:xlink="http://www.w3.org/1999/xlink" x="0px"
	 y="0px" viewBox="0 0 1920 1080" style="enable-background:new 0 0 1920 1080;" xml:space="preserve">
<style type="text/css">
	.st0{fill:#009EE2;}
	.st1{fill:#A3319C;}
	.st2{fill:#F31E34;}
	.st3{fill:#FF7B00;}
	.st4{fill:#35BF2E;}
	.st5{fill:#FFB600;}
</style>
<g>
	<path class="st0" d="M1526.03,607.22c-10.5,24.09-35.62,36.88-74.19,36.88c-28.2,0-51.9-4.2-66.3-12v-24.88h-20.4v33.58h-132.9
		v-33.58h-39v33.58h-56.7v-33.58h-35.94l11.64,33.58h-57.6l-11.36-33.58h-70.13l-10.6,33.58h-51l11.74-33.58h-54.34v33.58h-56.7
		v-33.58h-73.8v33.58h-141.9v-33.58h-48.21c-16.91,22.86-45.18,33.58-82.28,33.58h-77.7v-33.58"/>
	<path class="st0" d="M388.35,640.8h77.7c37.1,0,65.38-10.72,82.28-33.58H388.35V640.8z"/>
	<rect x="596.55" y="607.22" class="st0" width="141.9" height="33.58"/>
	<rect x="812.25" y="607.22" class="st0" width="56.7" height="33.58"/>
	<polygon class="st0" points="911.55,640.8 962.55,640.8 973.15,607.22 923.29,607.22 	"/>
	<polygon class="st0" points="1054.65,640.8 1112.25,640.8 1100.61,607.22 1043.29,607.22 	"/>
	<rect x="1136.55" y="607.22" class="st0" width="56.7" height="33.58"/>
	<rect x="1232.25" y="607.22" class="st0" width="132.9" height="33.58"/>
	<path class="st0" d="M1385.54,632.1c14.4,7.8,38.1,12,66.3,12c38.57,0,63.69-12.79,74.19-36.88h-140.49V632.1z"/>
	<path class="st1" d="M1531.58,573.62c0.04,1.27,0.06,2.56,0.06,3.88c0,11.28-1.9,21.2-5.61,29.72"/>
	<path class="st1" d="M503.62,573.62c-5.59,19.95-18.43,27.28-38.76,27.28h-20.1v-27.28h-56.4v33.6h159.98
		c6.8-9.2,11.74-20.38,14.7-33.6H503.62z"/>
	<polygon class="st1" points="652.35,600.3 652.35,573.62 596.55,573.62 596.55,607.22 738.45,607.22 738.45,600.3 	"/>
	<rect x="812.25" y="573.62" class="st1" width="56.7" height="33.6"/>
	<polygon class="st1" points="935.04,573.62 923.29,607.22 973.15,607.22 975.15,600.9 1041.15,600.9 1043.29,607.22 
		1100.61,607.22 1088.96,573.62 	"/>
	<rect x="1136.55" y="573.62" class="st1" width="56.7" height="33.6"/>
	<polygon class="st1" points="1288.65,600.3 1288.65,573.62 1232.25,573.62 1232.25,607.22 1365.15,607.22 1365.15,600.3 	"/>
	<path class="st1" d="M1476.45,583.5c0,12-8.7,18.9-31.2,18.9c-23.4,0-41.7-4.8-59.7-11.4v16.22h140.49
		c3.71-8.52,5.61-18.44,5.61-29.72c0-1.32-0.02-2.61-0.06-3.88h-57.56C1475.78,576.13,1476.45,579.29,1476.45,583.5z"/>
	<path class="st2" d="M1522.43,540.02c5.58,8.31,8.69,19.18,9.16,33.6"/>
	<rect x="388.35" y="540.02" class="st2" width="56.4" height="33.6"/>
	<path class="st2" d="M566.26,540.02h-59.4v4.48c0,11.8-1.08,21.4-3.24,29.12h59.41c2.11-9.45,3.22-19.93,3.22-31.52V540.02z"/>
	<polygon class="st2" points="717.45,557.7 717.45,540.02 596.55,540.02 596.55,573.62 652.35,573.62 652.35,557.7 	"/>
	<rect x="812.25" y="540.02" class="st2" width="56.7" height="33.6"/>
	<polygon class="st2" points="1021.92,540.02 1029.75,564.6 985.95,564.6 993.78,540.02 946.79,540.02 935.04,573.62 
		1088.96,573.62 1077.31,540.02 	"/>
	<rect x="1136.55" y="540.02" class="st2" width="56.7" height="33.6"/>
	<rect x="1232.25" y="540.02" class="st2" width="56.4" height="33.6"/>
	<path class="st2" d="M1436.84,561.3l15,3c12.47,2.49,19.05,4.87,22.17,9.32h57.56c-0.47-14.42-3.58-25.3-9.16-33.6h-126.48
		C1404.81,552.02,1418.84,557.94,1436.84,561.3z"/>
	<path class="st3" d="M1442.93,506.42c3.71,2.82,9.64,4.78,18.51,6.58l15,2.7c21.37,4.13,36.93,10.85,45.98,24.32"/>
	<rect x="388.35" y="506.42" class="st3" width="56.4" height="33.6"/>
	<path class="st3" d="M506.86,540.02h59.4v-4.82c0-10.57-0.88-20.14-2.58-28.78H503.6c2.14,7.39,3.25,16.56,3.25,27.88V540.02z"/>
	<polygon class="st3" points="717.45,540.02 717.45,518.1 652.35,518.1 652.35,506.42 596.55,506.42 596.55,540.02 	"/>
	<rect x="812.25" y="506.42" class="st3" width="56.7" height="33.6"/>
	<polygon class="st3" points="1077.31,540.02 1065.66,506.42 1011.23,506.42 1021.92,540.02 	"/>
	<polygon class="st3" points="993.78,540.02 1004.47,506.42 958.54,506.42 946.79,540.02 	"/>
	<rect x="1136.55" y="506.42" class="st3" width="56.7" height="33.6"/>
	<rect x="1232.25" y="506.42" class="st3" width="56.4" height="33.6"/>
	<path class="st3" d="M1395.95,540.02h126.48c-9.05-13.47-24.61-20.19-45.98-24.32l-15-2.7c-8.87-1.8-14.8-3.76-18.51-6.58h-57.47
		C1386.37,521.1,1389.99,531.94,1395.95,540.02z"/>
	<path class="st4" d="M388.35,472.82V439.2h77.4c38.54,0,67.53,10,84.24,33.62h46.55V439.2h139.2v33.62h23.4V439.2h162.6v33.62
		h48.54l11.76-33.62h60.3l11.66,33.62h82.54V439.2h56.7v33.62h39V439.2h56.4v33.62h101.17c9.1-22.98,31.97-36.92,70.13-36.92
		c32.1,0,47.7,4.8,59.7,10.5v26.42"/>
	<path class="st4" d="M465.75,439.2h-77.4v33.62H550C533.29,449.19,504.3,439.2,465.75,439.2z"/>
	<rect x="596.55" y="439.2" class="st4" width="139.2" height="33.62"/>
	<rect x="759.15" y="439.2" class="st4" width="162.6" height="33.62"/>
	<polygon class="st4" points="1042.35,439.2 982.05,439.2 970.29,472.82 1054.01,472.82 	"/>
	<rect x="1136.55" y="439.2" class="st4" width="56.7" height="33.62"/>
	<rect x="1232.25" y="439.2" class="st4" width="56.4" height="33.62"/>
	<path class="st4" d="M1519.65,446.4c-12-5.7-27.6-10.5-59.7-10.5c-38.16,0-61.03,13.94-70.13,36.92h129.83V446.4z"/>
	<polygon class="st5" points="1008.45,497.7 1007.25,497.7 1004.47,506.42 1011.23,506.42 	"/>
	<path class="st5" d="M444.75,506.42V479.1h18.6c20.32,0,34.29,6.68,40.25,27.32h60.08c-2.63-13.36-7.24-24.5-13.68-33.6H388.35
		v33.6H444.75z"/>
	<polygon class="st5" points="652.35,506.42 652.35,479.7 735.75,479.7 735.75,472.82 596.55,472.82 596.55,506.42 	"/>
	<polygon class="st5" points="812.25,479.7 812.25,506.42 868.95,506.42 868.95,479.7 921.75,479.7 921.75,472.82 759.15,472.82 
		759.15,479.7 	"/>
	<polygon class="st5" points="1004.47,506.42 1007.25,497.7 1008.45,497.7 1011.23,506.42 1065.66,506.42 1054.01,472.82 
		970.29,472.82 958.54,506.42 	"/>
	<rect x="1136.55" y="472.82" class="st5" width="56.7" height="33.6"/>
	<rect x="1232.25" y="472.82" class="st5" width="56.4" height="33.6"/>
	<path class="st5" d="M1385.47,506.42h57.47c-3.7-2.81-5.19-6.48-5.19-11.72c0-11.7,9.3-17.4,27.6-17.4c22.8,0,40.2,4.8,54.3,9.6
		v-14.08h-129.83c-3.06,7.73-4.57,16.49-4.57,26.08C1385.24,501.51,1385.32,504.02,1385.47,506.42z"/>
</g>
</svg>
