<?xml version="1.0" encoding="utf-8"?>
<!-- Generator: Adobe Illustrator 25.0.1, SVG Export Plug-In . SVG Version: 6.00 Build 0)  -->
<svg version="1.1" id="Layer_2" xmlns="http://www.w3.org/2000/svg" xmlns:xlink="http://www.w3.org/1999/xlink" x="0px" y="0px"
	 viewBox="0 0 580 1500" style="enable-background:new 0 0 580 1500;" xml:space="preserve">
<style type="text/css">
	
		.st0{opacity:7.000000e-02;fill:none;stroke:#F6EFD2;stroke-width:30;stroke-linecap:round;stroke-linejoin:round;enable-background:new    ;}
</style>
<path class="st0" d="M52.1,32.7L-96.8,298.9l0,0c-0.9,1.5-4.8,9.1-4.4,9.6c28.8-34.6,61.7-73.9,101.6-94.8
	c11.4-6,23.9-10.7,36.7-10.1c12.8,0.6,26.7,6.4,31.2,18.5c5.4,14.3-1.5,28.8-6.7,41.6c-10.4,25.5-34.6,48.8-30.2,76
	c3.3,20.4,15.4,26.4,24.9,30.8c15.8,7.2,38.5-0.4,49.7-3c3.5-0.8,15.3-3.5,40.2-16.5s49.6-34.6,58.2-61.3
	c3.9-12.1,1.3-26.2-7.3-35.6c-9.1-9.8-25.3-9.5-36.7-2.8c-11.5,6.8-18.9,18.5-24.9,30.3C124.7,303,113.5,328.1,116,352
	s19.1,51.2,41.6,59.4c21.1,7.7,46.1-4.2,67-12.9c76.9-32,149-98.5,165.7-180.2c2.1-9.8,4-17.9,0.9-27.4c-3.8-10.9-14.5-17.7-26-16.8
	c-10.1,0.8-18.2,8.1-25,15.8C306,229.1,273,290.7,261.4,341.6c-4.1,18.4-7.1,29.6-9.8,43.6c-1.3,6.8-0.6,13.8-0.4,20.8
	c0.6,17.9,7.8,59.3,34.4,69.6c25.5,9.8,46.9-2.5,48.7-3.2c16.5-6.9,35.5-15.4,50.1-25.5c9.9-6.9,45-37.5,54.9-48.6
	c34.2-38,48.1-64.5,62.9-104.1c4.2-11,6.6-24.9,4-36.3c-2.8-12-12.7-18.4-22.3-18.2c-4.2,0.1-8.3,1.2-11.9,3.4
	c-40.7,24.4-63.1,68.6-83.7,110.7c-7,14.2-14.1,28.6-18.9,43.8c-7.4,22.7-9.9,46.7-7.4,70.4c1.2,11.4,7.5,29.3,15.7,37.2
	c11.5,11,25.9,16.5,41.4,14.9c15.4-1.6,34-14.5,47.2-22.6c16.8-10.3,29.7-21.6,46.2-32.5c17-11.3,30.9-20.9,49.7-23.3
	c19.5-2.5,36.2,11,44.8,27.7c8.7,16.8,7,37.8-0.6,55.2c-7,16.1-16.9,33.3-30.8,44.1c-13.9,10.7-37.3,20.3-53.5,13.4
	c-17.2-7.3-31.9-27.6-33.9-46.7c-2.1-19.2,7.8-43.6,8.7-45.3c8.8-19.1,19.9-26.9,26.7-32.1c11.2-8.4,28.5-15.5,41.7-16.7
	c19.9-1.8,36.6,9.5,49.4,11.7c40,6.8,66.6,7.9,109.1-10.1"/>
</svg>
