<?xml version="1.0" encoding="utf-8"?>
<!-- Generator: Adobe Illustrator 25.0.1, SVG Export Plug-In . SVG Version: 6.00 Build 0)  -->
<svg version="1.1" id="레이어_1" xmlns="http://www.w3.org/2000/svg" xmlns:xlink="http://www.w3.org/1999/xlink" x="0px"
	 y="0px" viewBox="0 0 1920 1080" style="enable-background:new 0 0 1920 1080;" xml:space="preserve">
<style type="text/css">
	.st0{fill:#009EE2;}
	.st1{fill:#A3319C;}
	.st2{fill:#F31E34;}
	.st3{fill:#FF7B00;}
	.st4{fill:#35BF2E;}
	.st5{fill:#FFB600;}
</style>
<g>
	<rect x="188.11" y="607.22" class="st0" width="56.7" height="33.58"/>
	<rect x="68.41" y="607.22" class="st0" width="56.4" height="33.58"/>
	<path class="st0" d="M371.41,644.1c31.86,0,61.78-11.33,80.01-36.88H291.57C308.85,632.68,337.94,644.1,371.41,644.1z"/>
	<polygon class="st0" points="653.71,640.8 710.41,640.8 718.45,607.22 645.6,607.22 	"/>
	<polygon class="st0" points="534.61,640.8 591.61,640.8 600.04,607.22 526.61,607.22 	"/>
	<rect x="904.5" y="607.22" class="st0" width="56.7" height="33.58"/>
	<path class="st0" d="M1129.2,644.1c31.86,0,61.78-11.33,80-36.88h-159.84C1066.64,632.68,1095.73,644.1,1129.2,644.1z"/>
	<path class="st0" d="M1422.59,644.1c39.94,0,64.85-12.41,76.29-36.88h-155.91C1355.3,631.76,1381.9,644.1,1422.59,644.1z"/>
	<path class="st0" d="M1534.49,632.1c14.4,7.8,38.1,12,66.3,12c38.57,0,63.69-12.79,74.19-36.88h-140.49V632.1z"/>
	<rect x="1709.69" y="607.22" class="st0" width="141.9" height="33.58"/>
	<line class="st1" x1="726.5" y1="573.62" x2="718.45" y2="607.22"/>
	<line class="st1" x1="645.6" y1="607.22" x2="637.48" y2="573.62"/>
	<line class="st1" x1="608.48" y1="573.62" x2="600.04" y2="607.22"/>
	<line class="st1" x1="526.61" y1="607.22" x2="518.61" y2="573.62"/>
	<path class="st1" d="M466.18,573.62c-3.07,13.17-8.15,24.32-14.77,33.6"/>
	<rect x="188.11" y="573.62" class="st1" width="56.7" height="33.6"/>
	<rect x="68.41" y="573.62" class="st1" width="56.4" height="33.6"/>
	<path class="st1" d="M407.16,573.62c-5.1,19.81-16.77,29.38-34.55,29.38c-18.66,0-30.57-8.32-35.73-29.38h-59.15
		c2.8,13.16,7.53,24.31,13.84,33.6h159.84c6.62-9.28,11.7-20.43,14.77-33.6H407.16z"/>
	<polygon class="st1" points="518.61,573.62 526.61,607.22 600.04,607.22 608.48,573.62 	"/>
	<polygon class="st1" points="637.48,573.62 645.6,607.22 718.45,607.22 726.5,573.62 	"/>
	<rect x="904.5" y="573.62" class="st1" width="56.7" height="33.6"/>
	<path class="st1" d="M1164.95,573.62c-5.1,19.81-16.77,29.38-34.55,29.38c-18.66,0-30.57-8.32-35.73-29.38h-59.15
		c2.8,13.16,7.53,24.31,13.84,33.6h159.84c6.62-9.28,11.7-20.43,14.77-33.6H1164.95z"/>
	<path class="st1" d="M1455.62,573.62c-1.67,20.83-11.2,29.38-31.23,29.38c-20.1,0-30.61-8.61-32.42-29.38h-56.89
		c0.51,13,3.16,24.19,7.88,33.6h155.91c4.4-9.42,6.82-20.62,7.31-33.6H1455.62z"/>
	<path class="st1" d="M1680.53,573.62h-57.56c1.76,2.51,2.43,5.67,2.43,9.88c0,12-8.7,18.9-31.2,18.9c-23.4,0-41.7-4.8-59.7-11.4
		v16.22h140.49c3.71-8.52,5.61-18.44,5.61-29.72C1680.59,576.18,1680.57,574.89,1680.53,573.62z"/>
	<polygon class="st1" points="1709.69,607.22 1851.59,607.22 1851.59,600.3 1765.49,600.3 1765.49,573.62 1709.69,573.62 	"/>
	<line class="st2" x1="734.55" y1="540.02" x2="726.5" y2="573.62"/>
	<polygon class="st2" points="124.81,557.4 188.11,557.4 188.11,573.62 244.81,573.62 244.81,540.02 68.41,540.02 68.41,573.62 
		124.81,573.62 	"/>
	<path class="st2" d="M333.91,540.02h-59.1v3.88c0,10.86,1.01,20.75,2.92,29.72h59.15c-1.98-8.06-2.97-17.98-2.97-30.02V540.02z"/>
	<path class="st2" d="M469.51,540.02h-59.4v6.28c0,10.64-0.99,19.73-2.95,27.32h59.02c2.16-9.29,3.33-19.58,3.33-30.92V540.02z"/>
	<polygon class="st2" points="687.1,540.02 681.31,566.1 680.41,566.1 673.87,540.02 629.36,540.02 637.48,573.62 726.5,573.62 
		734.55,540.02 	"/>
	<polygon class="st2" points="577.5,540.02 570.91,566.1 569.71,566.1 564.28,540.02 510.61,540.02 518.61,573.62 608.48,573.62 
		616.92,540.02 	"/>
	<rect x="904.5" y="540.02" class="st2" width="56.7" height="33.6"/>
	<path class="st2" d="M1091.7,540.02h-59.1v3.88c0,10.86,1.01,20.75,2.92,29.72h59.15c-1.98-8.06-2.97-17.98-2.97-30.02V540.02z"/>
	<path class="st2" d="M1227.3,540.02h-59.4v6.28c0,10.64-0.99,19.73-2.95,27.32h59.02c2.16-9.29,3.33-19.58,3.33-30.92V540.02z"/>
	<path class="st2" d="M1506.29,540.02h-50.4v26.38c0,2.56-0.09,4.96-0.27,7.22h50.57c0.06-1.68,0.1-3.38,0.1-5.12V540.02z"/>
	<path class="st2" d="M1391.69,540.02h-56.7v28.78c0,1.63,0.03,3.24,0.1,4.82h56.89c-0.19-2.17-0.28-4.48-0.28-6.92V540.02z"/>
	<path class="st2" d="M1544.9,540.02c8.86,12,22.9,17.92,40.9,21.28l15,3c12.47,2.49,19.05,4.87,22.17,9.32h57.56
		c-0.47-14.42-3.58-25.3-9.16-33.6H1544.9z"/>
	<polygon class="st2" points="1709.69,573.62 1765.49,573.62 1765.49,557.7 1830.59,557.7 1830.59,540.02 1709.69,540.02 	"/>
	<line class="st3" x1="742.6" y1="506.42" x2="734.55" y2="540.02"/>
	<polygon class="st3" points="244.81,506.42 188.11,506.42 188.11,516.9 124.81,516.9 124.81,506.42 68.41,506.42 68.41,540.02 
		244.81,540.02 	"/>
	<path class="st3" d="M410.11,540.02h59.4v-3.92c0-10.85-1.02-20.73-2.93-29.68h-59.36c1.95,8.04,2.9,17.88,2.9,29.68V540.02z"/>
	<path class="st3" d="M274.81,540.02h59.1v-6.62c0-10.49,0.98-19.46,2.92-26.98h-58.7c-2.16,9.28-3.32,19.55-3.32,30.88V540.02z"/>
	<polygon class="st3" points="734.55,540.02 742.6,506.42 694.57,506.42 687.1,540.02 	"/>
	<polygon class="st3" points="616.92,540.02 622.81,516.6 623.71,516.6 629.36,540.02 673.87,540.02 665.45,506.42 586,506.42 
		577.5,540.02 	"/>
	<polygon class="st3" points="564.28,540.02 557.29,506.42 502.61,506.42 510.61,540.02 	"/>
	<rect x="904.5" y="506.42" class="st3" width="56.7" height="33.6"/>
	<path class="st3" d="M1167.9,540.02h59.4v-3.92c0-10.85-1.02-20.73-2.93-29.68H1165c1.95,8.04,2.9,17.88,2.9,29.68V540.02z"/>
	<path class="st3" d="M1032.6,540.02h59.1v-6.62c0-10.49,0.98-19.46,2.92-26.98h-58.7c-2.16,9.28-3.32,19.55-3.32,30.88V540.02z"/>
	<rect x="1455.89" y="506.42" class="st3" width="50.4" height="33.6"/>
	<rect x="1334.99" y="506.42" class="st3" width="56.7" height="33.6"/>
	<path class="st3" d="M1671.37,540.02c-9.05-13.47-24.61-20.19-45.98-24.32l-15-2.7c-8.87-1.8-14.8-3.76-18.51-6.58h-57.47
		c0.9,14.68,4.52,25.52,10.48,33.6H1671.37z"/>
	<polygon class="st3" points="1709.69,540.02 1830.59,540.02 1830.59,518.1 1765.49,518.1 1765.49,506.42 1709.69,506.42 	"/>
	<rect x="188.11" y="439.2" class="st4" width="56.7" height="33.62"/>
	<rect x="68.41" y="439.2" class="st4" width="56.4" height="33.62"/>
	<path class="st4" d="M372.91,435.9c-31.88,0-61.81,11.34-80.03,36.92H452.7C435.36,447.33,406.21,435.9,372.91,435.9z"/>
	<polygon class="st4" points="648.61,439.2 603.01,439.2 594.5,472.82 657.03,472.82 	"/>
	<polygon class="st4" points="543.31,439.2 486.61,439.2 494.61,472.82 550.3,472.82 	"/>
	<polygon class="st4" points="758.71,439.2 709.51,439.2 702.04,472.82 750.65,472.82 	"/>
	<rect x="851.4" y="439.2" class="st4" width="162.6" height="33.62"/>
	<path class="st4" d="M1130.7,435.9c-31.88,0-61.81,11.34-80.03,36.92h159.82C1193.15,447.33,1164,435.9,1130.7,435.9z"/>
	<rect x="1455.89" y="439.5" class="st4" width="50.4" height="33.32"/>
	<rect x="1334.99" y="439.5" class="st4" width="56.7" height="33.32"/>
	<path class="st4" d="M1668.59,446.4c-12-5.7-27.6-10.5-59.7-10.5c-38.16,0-61.03,13.94-70.13,36.92h129.83V446.4z"/>
	<rect x="1709.69" y="439.2" class="st4" width="139.2" height="33.62"/>
	<rect x="188.11" y="472.82" class="st5" width="56.7" height="33.6"/>
	<rect x="68.41" y="472.82" class="st5" width="56.4" height="33.6"/>
	<path class="st5" d="M336.83,506.42c5.1-19.8,16.83-29.42,34.88-29.42c18.98,0,30.52,8.84,35.5,29.42h59.36
		c-2.81-13.15-7.56-24.31-13.88-33.6H292.88c-6.61,9.28-11.69,20.43-14.75,33.6H336.83z"/>
	<polygon class="st5" points="665.45,506.42 657.03,472.82 594.5,472.82 586,506.42 	"/>
	<polygon class="st5" points="557.29,506.42 550.3,472.82 494.61,472.82 502.61,506.42 	"/>
	<polygon class="st5" points="742.6,506.42 750.65,472.82 702.04,472.82 694.57,506.42 	"/>
	<polygon class="st5" points="904.5,479.7 904.5,506.42 961.2,506.42 961.2,479.7 1014,479.7 1014,472.82 851.4,472.82 851.4,479.7 
			"/>
	<path class="st5" d="M1094.62,506.42c5.1-19.8,16.83-29.42,34.88-29.42c18.98,0,30.52,8.84,35.5,29.42h59.36
		c-2.81-13.15-7.56-24.31-13.88-33.6h-159.82c-6.61,9.28-11.69,20.43-14.75,33.6H1094.62z"/>
	<rect x="1334.99" y="472.82" class="st5" width="56.7" height="33.6"/>
	<rect x="1455.89" y="472.82" class="st5" width="50.4" height="33.6"/>
	<path class="st5" d="M1534.41,506.42h57.47c-3.7-2.81-5.19-6.48-5.19-11.72c0-11.7,9.3-17.4,27.6-17.4c22.8,0,40.2,4.8,54.3,9.6
		v-14.08h-129.83c-3.06,7.73-4.57,16.49-4.57,26.08C1534.19,501.51,1534.27,504.02,1534.41,506.42z"/>
	<polygon class="st5" points="1765.49,506.42 1765.49,479.7 1848.89,479.7 1848.89,472.82 1709.69,472.82 1709.69,506.42 	"/>
</g>
</svg>
